<svg xmlns="http://www.w3.org/2000/svg" width="27.198" height="27.198" viewBox="0 0 27.198 27.198">
  <g id="Group_49763" data-name="Group 49763" transform="translate(-3090.666 -4352.667)">
    <g id="Group_49716" data-name="Group 49716" transform="translate(3090.666 4352.666)">
      <path id="Path_9812" data-name="Path 9812" d="M26.494,14.082,17.756,9.955c.027-.472.107-1.9.134-2.375a7.9,7.9,0,0,0-2.06-5.865L14.689.478a1.483,1.483,0,0,0-2.18,0l-1.14,1.237a7.9,7.9,0,0,0-2.06,5.865c.048.855.019.339.134,2.382L.706,14.082A1.234,1.234,0,0,0,0,15.194v2.689a1.23,1.23,0,0,0,1.557,1.186l1.238-.341v1.05a.8.8,0,0,0,1.595,0V18.289l1.807-.5v1a.8.8,0,0,0,1.595,0V17.353l2.037-.56.254,4.518L6.179,22.5a1.222,1.222,0,0,0-.873,1.176v2.293A1.231,1.231,0,0,0,6.537,27.2H20.661a1.231,1.231,0,0,0,1.23-1.229V23.676A1.222,1.222,0,0,0,21.02,22.5l-3.9-1.19.254-4.518,2.042.562v1.425a.8.8,0,0,0,1.595,0v-.986l1.807.5v1.471a.8.8,0,0,0,1.595,0V18.73l1.233.339A1.23,1.23,0,0,0,27.2,17.883V15.194a1.233,1.233,0,0,0-.7-1.111ZM15.277,25.6H11.921l0-.046L10.956,8.464a6.739,6.739,0,0,1,1.013-1.05,2.731,2.731,0,0,1,3.238,0,6.663,6.663,0,0,1,1.035,1.078L15.277,25.6ZM12.541,2.795,13.6,1.647l1.058,1.147a6.282,6.282,0,0,1,1.6,3.42l-.027-.023a4.3,4.3,0,0,0-5.285,0h0a6.286,6.286,0,0,1,1.6-3.4ZM1.595,17.405v-1.98L9.54,11.678l.2,3.487ZM6.9,25.6V23.946l3.273-1,.15,2.656H6.9Zm13.4-1.659V25.6H16.874l.15-2.656ZM25.6,17.405l-8.141-2.24.2-3.493L25.6,15.424Z" transform="translate(0 0)" fill="#ed3897"/>
    </g>
  </g>
</svg>
