<svg xmlns="http://www.w3.org/2000/svg" width="142.909" height="48.01" viewBox="0 0 142.909 48.01"><defs><style>.a,.b{fill:#fff;}.b{stroke:#fff;stroke-width:0.2px;}</style></defs><g transform="translate(0 3)"><path d="M159.4,59.718c0,2.658-1.841,4.813-4.111,4.813H20.616c-2.273,0-4.118-2.152-4.121-4.813V21.34c0-2.662,1.847-4.818,4.121-4.819H155.288c2.273,0,4.115,2.157,4.115,4.818h0V59.718Z" transform="translate(-16.495 -19.521)"/><g transform="translate(12.754 6.002)"><path class="a" d="M254.793,129.083a5.922,5.922,0,0,1,2.821-4.969,6.068,6.068,0,0,0-4.778-2.583c-2.01-.212-3.96,1.2-4.984,1.2-1.044,0-2.621-1.182-4.32-1.147a6.362,6.362,0,0,0-5.355,3.265c-2.316,4.008-.589,9.9,1.63,13.137,1.11,1.588,2.406,3.358,4.1,3.3,1.661-.067,2.281-1.057,4.285-1.057,1.985,0,2.568,1.057,4.3,1.018,1.782-.028,2.9-1.594,3.975-3.195a13.1,13.1,0,0,0,1.818-3.7,5.73,5.73,0,0,1-3.495-5.265Zm-3.27-9.683a5.828,5.828,0,0,0,1.335-4.177,5.94,5.94,0,0,0-3.84,1.986,5.547,5.547,0,0,0-1.369,4.023,4.906,4.906,0,0,0,3.875-1.832Z" transform="translate(-237.078 -112.972)"/><g transform="translate(32.566 0)"><path class="a" d="M797.089,346.4h-2.166l-1.186-3.727h-4.124l-1.13,3.727h-2.108l4.086-12.688h2.523l4.1,12.688Zm-3.71-5.29-1.073-3.313q-.17-.508-.64-2.39h-.038q-.189.809-.6,2.39l-1.055,3.313Zm14.2.6a5.18,5.18,0,0,1-1.268,3.689,3.719,3.719,0,0,1-2.821,1.205,2.823,2.823,0,0,1-2.613-1.3v4.8h-2.033V340.26q0-1.466-.075-3.007h1.788l.113,1.45h.038a3.617,3.617,0,0,1,5.789-.359,5.058,5.058,0,0,1,1.081,3.371Zm-2.071.074a3.77,3.77,0,0,0-.6-2.2,2.083,2.083,0,0,0-1.77-.9,2.114,2.114,0,0,0-1.365.5,2.312,2.312,0,0,0-.8,1.309,2.669,2.669,0,0,0-.094.619v1.526a2.447,2.447,0,0,0,.612,1.686,2.032,2.032,0,0,0,1.591.687,2.084,2.084,0,0,0,1.788-.885A3.893,3.893,0,0,0,805.506,341.789Zm12.6-.074a5.179,5.179,0,0,1-1.268,3.689,3.721,3.721,0,0,1-2.822,1.205,2.824,2.824,0,0,1-2.613-1.3v4.8h-2.033V340.26q0-1.466-.075-3.007h1.788l.113,1.45h.038a3.618,3.618,0,0,1,5.79-.359,5.063,5.063,0,0,1,1.081,3.371Zm-2.072.074a3.771,3.771,0,0,0-.6-2.2,2.08,2.08,0,0,0-1.768-.9,2.123,2.123,0,0,0-1.367.5,2.311,2.311,0,0,0-.8,1.309,2.717,2.717,0,0,0-.1.619v1.526a2.456,2.456,0,0,0,.611,1.686,2.037,2.037,0,0,0,1.593.687,2.081,2.081,0,0,0,1.788-.885A3.893,3.893,0,0,0,816.03,341.789Zm13.84,1.053a3.389,3.389,0,0,1-1.128,2.636,5,5,0,0,1-3.457,1.111A6.034,6.034,0,0,1,822,345.8l.47-1.694a5.658,5.658,0,0,0,2.937.791,2.772,2.772,0,0,0,1.788-.518,1.691,1.691,0,0,0,.642-1.382,1.771,1.771,0,0,0-.528-1.3,4.9,4.9,0,0,0-1.751-.978q-3.333-1.243-3.334-3.634a3.208,3.208,0,0,1,1.177-2.56,4.653,4.653,0,0,1,3.116-1,6.159,6.159,0,0,1,2.881.6l-.51,1.657a5.039,5.039,0,0,0-2.439-.584,2.48,2.48,0,0,0-1.682.527,1.508,1.508,0,0,0-.51,1.15,1.554,1.554,0,0,0,.585,1.242,6.585,6.585,0,0,0,1.844.978,6.253,6.253,0,0,1,2.41,1.543,3.214,3.214,0,0,1,.775,2.2Zm6.739-4.064h-2.241v4.442q0,1.695,1.186,1.693a3.576,3.576,0,0,0,.9-.094l.056,1.544a4.608,4.608,0,0,1-1.581.225,2.437,2.437,0,0,1-1.883-.735,3.6,3.6,0,0,1-.678-2.466v-4.611h-1.335v-1.525h1.335v-1.675l2-.6v2.278h2.241v1.529Zm10.091,2.974a5.018,5.018,0,0,1-1.205,3.464,4.3,4.3,0,0,1-3.351,1.393,4.1,4.1,0,0,1-3.211-1.335,4.865,4.865,0,0,1-1.2-3.369,4.977,4.977,0,0,1,1.233-3.482,4.275,4.275,0,0,1,3.324-1.356,4.182,4.182,0,0,1,3.238,1.337,4.8,4.8,0,0,1,1.168,3.348Zm-2.107.047a4.1,4.1,0,0,0-.545-2.158,2.013,2.013,0,0,0-1.827-1.09,2.042,2.042,0,0,0-1.864,1.09,4.164,4.164,0,0,0-.545,2.2,4.085,4.085,0,0,0,.545,2.159,2.085,2.085,0,0,0,3.674-.018,4.112,4.112,0,0,0,.562-2.179Zm8.719-2.758a3.558,3.558,0,0,0-.641-.056,1.919,1.919,0,0,0-1.657.81,3.052,3.052,0,0,0-.507,1.807v4.8h-2.033v-6.268q0-1.441-.059-2.88h1.771l.074,1.75h.056a3.139,3.139,0,0,1,1.017-1.45,2.459,2.459,0,0,1,1.47-.49,3.268,3.268,0,0,1,.508.037l0,1.939Zm9.093,2.354a4.759,4.759,0,0,1-.074.922h-6.1a2.653,2.653,0,0,0,.885,2.073,3.027,3.027,0,0,0,2,.639,6.746,6.746,0,0,0,2.468-.432l.319,1.41a7.634,7.634,0,0,1-3.068.565,4.447,4.447,0,0,1-3.343-1.251,4.623,4.623,0,0,1-1.214-3.36,5.24,5.24,0,0,1,1.131-3.444,3.9,3.9,0,0,1,3.2-1.467,3.411,3.411,0,0,1,3,1.467,4.938,4.938,0,0,1,.807,2.877Zm-1.939-.527a2.752,2.752,0,0,0-.395-1.563,1.776,1.776,0,0,0-1.619-.848,1.928,1.928,0,0,0-1.618.828,3.035,3.035,0,0,0-.6,1.581l4.234,0Z" transform="translate(-786.375 -320.207)"/><path class="b" d="M811.172,128.991a14.8,14.8,0,0,1-1.667-.085v-7a12.621,12.621,0,0,1,1.963-.148c2.659,0,3.883,1.308,3.883,3.44C815.351,127.662,813.9,128.991,811.172,128.991Zm.389-6.331a4.648,4.648,0,0,0-.918.074v5.317a6.025,6.025,0,0,0,.77.032,2.519,2.519,0,0,0,2.734-2.848A2.32,2.32,0,0,0,811.561,122.66Zm7.606,6.384a2.441,2.441,0,0,1-2.47-2.638,2.5,2.5,0,0,1,2.555-2.711,2.421,2.421,0,0,1,2.47,2.628,2.512,2.512,0,0,1-2.555,2.721Zm.044-4.516c-.823,0-1.351.77-1.351,1.846,0,1.056.538,1.825,1.34,1.825s1.34-.823,1.34-1.847c0-1.044-.527-1.824-1.329-1.824Zm11.056-.727-1.6,5.127h-1.045l-.664-2.227a16.806,16.806,0,0,1-.412-1.656h-.022a11.1,11.1,0,0,1-.411,1.656l-.707,2.227h-1.056l-1.51-5.127h1.171l.581,2.437q.206.871.348,1.646h.022c.084-.432.221-.971.422-1.635l.729-2.447h.929l.7,2.4c.168.581.305,1.15.412,1.688h.03a14.7,14.7,0,0,1,.348-1.688l.623-2.4Zm5.905,5.127h-1.14v-2.944c0-.907-.348-1.361-1.034-1.361a1.183,1.183,0,0,0-1.14,1.256v3.05h-1.14v-3.662c0-.453-.011-.939-.042-1.467h1l.053.791h.031a1.843,1.843,0,0,1,1.626-.9c1.077,0,1.783.823,1.783,2.162v3.07Zm3.143,0h-1.141v-7.48h1.141Zm4.155.116a2.441,2.441,0,0,1-2.47-2.638,2.5,2.5,0,0,1,2.553-2.711,2.421,2.421,0,0,1,2.47,2.628,2.511,2.511,0,0,1-2.553,2.721Zm.042-4.516c-.823,0-1.351.77-1.351,1.846,0,1.056.539,1.825,1.339,1.825s1.34-.823,1.34-1.847c0-1.044-.525-1.824-1.328-1.824Zm7,4.4-.083-.59h-.03a1.751,1.751,0,0,1-1.5.707,1.491,1.491,0,0,1-1.571-1.509c0-1.265,1.1-1.92,3-1.92v-.095c0-.675-.358-1.013-1.065-1.013a2.4,2.4,0,0,0-1.34.381l-.232-.749a3.278,3.278,0,0,1,1.761-.444c1.34,0,2.016.707,2.016,2.121V127.7a7.737,7.737,0,0,0,.074,1.224Zm-.157-2.554c-1.266,0-1.9.307-1.9,1.034a.726.726,0,0,0,.782.8,1.091,1.091,0,0,0,1.119-1.044ZM857,128.928l-.053-.823h-.032a1.719,1.719,0,0,1-1.646.939,2.337,2.337,0,0,1-2.152-2.617c0-1.6.949-2.733,2.246-2.733a1.541,1.541,0,0,1,1.446.7h.023v-2.943h1.141v6.1c0,.5.012.96.042,1.382Zm-.168-3.017a1.24,1.24,0,0,0-1.2-1.33c-.845,0-1.362.749-1.362,1.8,0,1.034.536,1.742,1.339,1.742a1.28,1.28,0,0,0,1.224-1.361v-.855Zm8.373,3.133a2.44,2.44,0,0,1-2.468-2.638,2.5,2.5,0,0,1,2.553-2.711,2.421,2.421,0,0,1,2.47,2.628,2.511,2.511,0,0,1-2.554,2.721Zm.042-4.516c-.822,0-1.35.77-1.35,1.846,0,1.056.538,1.825,1.339,1.825s1.34-.823,1.34-1.847c0-1.044-.525-1.824-1.329-1.824Zm8.641,4.4h-1.141v-2.944c0-.907-.348-1.361-1.034-1.361a1.183,1.183,0,0,0-1.138,1.256v3.05h-1.141v-3.662c0-.453-.011-.939-.042-1.467h1l.053.791h.031a1.841,1.841,0,0,1,1.625-.9c1.077,0,1.785.823,1.785,2.163Zm7.668-4.273h-1.254v2.49c0,.634.22.95.663.95a2.248,2.248,0,0,0,.506-.053l.031.865a2.525,2.525,0,0,1-.884.127c-.9,0-1.435-.5-1.435-1.794v-2.585h-.748V123.8h.748v-.939l1.119-.338V123.8h1.254v.856Zm6.033,4.273h-1.138v-2.922c0-.918-.347-1.382-1.034-1.382a1.118,1.118,0,0,0-1.141,1.213v3.091h-1.138v-7.48h1.138v3.08h.023a1.729,1.729,0,0,1,1.542-.834c1.085,0,1.749.844,1.749,2.184v3.05Zm6.181-2.29h-3.42a1.472,1.472,0,0,0,1.616,1.519,3.852,3.852,0,0,0,1.382-.242l.177.791a4.282,4.282,0,0,1-1.72.316,2.38,2.38,0,0,1-2.553-2.584,2.5,2.5,0,0,1,2.425-2.754,2.154,2.154,0,0,1,2.133,2.437,2.2,2.2,0,0,1-.039.516Zm-1.045-.812c0-.791-.4-1.35-1.128-1.35a1.352,1.352,0,0,0-1.246,1.35Z" transform="translate(-809.505 -121.448)"/></g></g></g></svg>