<svg xmlns="http://www.w3.org/2000/svg" width="21.856" height="21.301" viewBox="0 0 21.856 21.301">
  <path id="Path_9864" data-name="Path 9864" d="M-105.147-23.909l-1.58-14.13a.64.64,0,0,0-.636-.569h-3.948v-1.131a4.765,4.765,0,0,0-4.76-4.76,4.765,4.765,0,0,0-4.76,4.76v1.131h-3.95a.64.64,0,0,0-.636.569L-127-23.909a.64.64,0,0,0,.159.5.64.64,0,0,0,.477.213h20.576a.64.64,0,0,0,.477-.213A.64.64,0,0,0-105.147-23.909Zm-14.4-15.83a3.483,3.483,0,0,1,3.479-3.479,3.483,3.483,0,0,1,3.479,3.479v1.131h-6.958Zm-6.093,15.261,1.435-12.849h3.377v1.391a1.924,1.924,0,0,0-1.281,1.811,1.923,1.923,0,0,0,1.921,1.921,1.923,1.923,0,0,0,1.921-1.921,1.924,1.924,0,0,0-1.281-1.811v-1.391h6.958v1.391a1.924,1.924,0,0,0-1.281,1.811,1.923,1.923,0,0,0,1.921,1.921,1.923,1.923,0,0,0,1.921-1.921,1.924,1.924,0,0,0-1.281-1.811v-1.391h3.375l1.437,12.849Zm5.453-10.288a.641.641,0,0,1,.64.64.641.641,0,0,1-.64.64.641.641,0,0,1-.64-.64A.641.641,0,0,1-120.191-34.766Zm8.239,0a.641.641,0,0,1,.64.64.641.641,0,0,1-.64.64.641.641,0,0,1-.64-.64A.641.641,0,0,1-111.952-34.766Z" transform="translate(127 44.499)" fill="#979797"/>
</svg>
