<svg xmlns="http://www.w3.org/2000/svg" width="25.672" height="25.672" viewBox="0 0 25.672 25.672"><defs><style>.a{opacity:0.5;}.b{fill:#fff;}</style></defs><g class="a"><path class="b" d="M25.672,3.761V21.912a3.762,3.762,0,0,1-3.761,3.761H15.845l-1.5-1.5h-1.5l-1.5,1.5H3.761A3.762,3.762,0,0,1,0,21.912V3.761A3.762,3.762,0,0,1,3.761,0H21.912A3.762,3.762,0,0,1,25.672,3.761Zm0,0" transform="translate(0 0)"/><path d="M173.521,94.513v3.008h4.513l-.752,4.513h-3.761v9.126h-4.513v-9.126H166V97.521h3.008V94.513a4.538,4.538,0,0,1,2.256-3.911,4.6,4.6,0,0,1,2.256-.6h4.513v4.513Zm0,0" transform="translate(-157.677 -85.487)"/></g></svg>