<svg xmlns="http://www.w3.org/2000/svg" xmlns:xlink="http://www.w3.org/1999/xlink" width="142.546" height="48.01" viewBox="0 0 142.546 48.01"><defs><style>.a,.i{fill:#fff;}.b{stroke:#000;stroke-width:0.2px;}.c{fill:url(#a);}.d{fill:url(#b);}.e{fill:url(#c);}.f{fill:url(#d);}.g{opacity:0.2;}.g,.h,.i{isolation:isolate;}.h{opacity:0.12;}.i{opacity:0.25;}</style><linearGradient id="a" x1="2.976" y1="1.679" x2="2.906" y2="1.715" gradientUnits="objectBoundingBox"><stop offset="0" stop-color="#00a0ff"/><stop offset="0.007" stop-color="#00a1ff"/><stop offset="0.26" stop-color="#00beff"/><stop offset="0.512" stop-color="#00d2ff"/><stop offset="0.76" stop-color="#00dfff"/><stop offset="1" stop-color="#00e3ff"/></linearGradient><linearGradient id="b" x1="2.604" y1="4.034" x2="2.476" y2="4.034" gradientUnits="objectBoundingBox"><stop offset="0" stop-color="#ffe000"/><stop offset="0.409" stop-color="#ffbd00"/><stop offset="0.775" stop-color="orange"/><stop offset="1" stop-color="#ff9c00"/></linearGradient><linearGradient id="c" x1="2.302" y1="2.344" x2="2.229" y2="2.439" gradientUnits="objectBoundingBox"><stop offset="0" stop-color="#ff3a44"/><stop offset="1" stop-color="#c31162"/></linearGradient><linearGradient id="d" x1="2.246" y1="3.262" x2="2.278" y2="3.305" gradientUnits="objectBoundingBox"><stop offset="0" stop-color="#32a071"/><stop offset="0.069" stop-color="#2da771"/><stop offset="0.476" stop-color="#15cf74"/><stop offset="0.801" stop-color="#06e775"/><stop offset="1" stop-color="#00f076"/></linearGradient></defs><g transform="translate(0 3)"><path class="a" d="M137.266,48.14H5.279C2.323,48.14,0,45.5,0,42.139V6.131c0-3.361,2.323-6,5.279-6H137.266c2.957,0,5.279,2.641,5.279,6V42.139C142.546,45.5,140.223,48.14,137.266,48.14Z" transform="translate(0 -3.13)"/><g transform="translate(11.254 6.752)"><g transform="translate(33.834 0)"><path class="b" d="M773.206,131.5a2.969,2.969,0,0,1-.763,2.18,3.391,3.391,0,1,1-2.4-5.776,2.9,2.9,0,0,1,1.308.327,2.373,2.373,0,0,1,.981.763l-.545.545a2.032,2.032,0,0,0-1.744-.763,2.168,2.168,0,0,0-1.744.763,2.632,2.632,0,0,0,0,3.706,2.806,2.806,0,0,0,1.744.763,2.39,2.39,0,0,0,1.853-.763,1.8,1.8,0,0,0,.545-1.308h-2.4v-.872h3.161v.436Zm5.013-2.725h-2.943v2.071H778v.763h-2.725v2.071h2.943v.872h-3.815v-6.539h3.815Zm3.6,5.776h-.872v-5.776h-1.853v-.763h4.577v.763h-1.853Zm5.013,0v-6.539h.872v6.539Zm4.578,0h-.872v-5.776h-1.853v-.763h4.468v.763H791.3v5.776Zm10.354-.872a3.421,3.421,0,1,1,.981-2.4A3.2,3.2,0,0,1,801.76,133.683Zm-4.141-.545a2.572,2.572,0,0,0,1.744.763,2.168,2.168,0,0,0,1.744-.763,2.629,2.629,0,0,0,.763-1.853,2.245,2.245,0,0,0-.763-1.853,2.571,2.571,0,0,0-1.744-.763,2.169,2.169,0,0,0-1.744.763,2.63,2.63,0,0,0-.763,1.853A2.246,2.246,0,0,0,797.619,133.138Zm6.321,1.417v-6.539h.981l3.16,5.122v-5.122h.872v6.539h-.872l-3.378-5.34v5.34Z" transform="translate(-765.667 -127.907)"/><path d="M788.547,321.572a4.275,4.275,0,0,0-4.369,4.369,4.337,4.337,0,0,0,4.369,4.369,4.275,4.275,0,0,0,4.369-4.369A4.216,4.216,0,0,0,788.547,321.572Zm0,6.91a2.65,2.65,0,0,1,0-5.284,2.462,2.462,0,0,1,2.439,2.642A2.522,2.522,0,0,1,788.547,328.482Zm-9.45-6.91a4.275,4.275,0,0,0-4.369,4.369,4.337,4.337,0,0,0,4.369,4.369,4.275,4.275,0,0,0,4.369-4.369A4.216,4.216,0,0,0,779.1,321.572Zm0,6.91a2.65,2.65,0,0,1,0-5.284,2.461,2.461,0,0,1,2.439,2.642A2.522,2.522,0,0,1,779.1,328.482Zm-11.279-5.589v1.829h4.369a3.842,3.842,0,0,1-1.016,2.337,4.5,4.5,0,0,1-3.353,1.321,4.731,4.731,0,0,1-4.776-4.877,4.793,4.793,0,0,1,4.776-4.877,5.037,5.037,0,0,1,3.353,1.321l1.321-1.321a6.512,6.512,0,0,0-4.572-1.829,6.707,6.707,0,1,0,0,13.413,5.847,5.847,0,0,0,4.674-1.931,6.117,6.117,0,0,0,1.626-4.268,3.81,3.81,0,0,0-.1-1.118Zm46.132,1.423a3.948,3.948,0,0,0-3.658-2.744,4.093,4.093,0,0,0-4.064,4.369,4.253,4.253,0,0,0,4.268,4.369,4.168,4.168,0,0,0,3.556-1.931l-1.422-1.016a2.477,2.477,0,0,1-2.134,1.219,2.2,2.2,0,0,1-2.134-1.321l5.792-2.439-.2-.508Zm-5.893,1.423a2.468,2.468,0,0,1,2.235-2.54,1.8,1.8,0,0,1,1.626.915l-3.861,1.626ZM803.28,329.9h1.931V317.2H803.28Zm-3.048-7.418a3.346,3.346,0,0,0-2.337-1.016,4.366,4.366,0,0,0-4.166,4.369,4.208,4.208,0,0,0,4.166,4.268,2.917,2.917,0,0,0,2.235-1.016h.1v.61a2.31,2.31,0,0,1-4.471,1.016l-1.626.711a4.192,4.192,0,0,0,3.861,2.54c2.235,0,4.064-1.321,4.064-4.471v-7.723h-1.829v.711Zm-2.235,6a2.65,2.65,0,0,1,0-5.284,2.662,2.662,0,0,1,0,5.284ZM822.79,317.2h-4.573v12.7h1.931v-4.776h2.642a3.968,3.968,0,1,0,0-7.926Zm.1,6.1h-2.744V318.93h2.744a2.232,2.232,0,0,1,2.236,2.134,2.326,2.326,0,0,1-2.236,2.235Zm11.685-1.829a3.416,3.416,0,0,0-3.353,1.931l1.727.711a1.8,1.8,0,0,1,1.728-.915,1.91,1.91,0,0,1,2.032,1.626v.1a4.031,4.031,0,0,0-1.931-.508c-1.829,0-3.658,1.016-3.658,2.845a2.977,2.977,0,0,0,3.15,2.845,2.859,2.859,0,0,0,2.439-1.219h.1V329.9h1.829v-4.878a3.846,3.846,0,0,0-4.065-3.556Zm-.2,7.011c-.61,0-1.524-.3-1.524-1.118,0-1.016,1.118-1.321,2.032-1.321a3.929,3.929,0,0,1,1.727.406A2.367,2.367,0,0,1,834.374,328.482Zm10.669-6.707-2.134,5.487h-.1l-2.235-5.487H838.54l3.353,7.723-1.931,4.268h1.931l5.182-11.99ZM827.972,329.9h1.93V317.2h-1.93Z" transform="translate(-760.736 -304.855)"/></g><g transform="translate(0 0.75)"><path class="c" d="M185.621,139.019a2.13,2.13,0,0,0-.436,1.526v24.086a2.157,2.157,0,0,0,.545,1.526l.109.109,13.514-13.514v-.218Z" transform="translate(-185.185 -138.634)"/><path class="d" d="M428.542,301.986l-4.468-4.469v-.327l4.468-4.468.109.109,5.34,3.052c1.526.872,1.526,2.289,0,3.161Z" transform="translate(-410.015 -283.292)"/><path class="e" d="M210.794,375.078l-4.577-4.577-13.623,13.623c.545.545,1.308.545,2.289.109l15.912-9.155" transform="translate(-192.157 -356.492)"/><path class="f" d="M210.794,142.335l-15.912-9.046a1.766,1.766,0,0,0-2.289.109l13.623,13.514,4.577-4.578Z" transform="translate(-192.157 -132.905)"/><path class="g" d="M210.685,446.426l-15.8,8.937a1.782,1.782,0,0,1-2.18,0l-.109.109.109.109a1.782,1.782,0,0,0,2.18,0Z" transform="translate(-192.157 -427.95)"/><path class="h" d="M185.621,383.906a2.131,2.131,0,0,1-.436-1.526v.109a2.157,2.157,0,0,0,.545,1.526v-.109Zm23.541-11.989-5.449,3.052.109.109,5.34-3.052a1.812,1.812,0,0,0,1.09-1.526C210.252,371.045,209.816,371.481,209.162,371.917Z" transform="translate(-185.185 -356.492)"/><path class="i" d="M187.91,132.979l21.252,12.1c.654.436,1.09.872,1.09,1.417a1.812,1.812,0,0,0-1.09-1.526l-21.252-12.1c-1.526-.872-2.725-.218-2.725,1.526v.109C185.185,132.87,186.384,132.107,187.91,132.979Z" transform="translate(-185.185 -132.485)"/></g></g></g></svg>