<svg xmlns="http://www.w3.org/2000/svg" width="26.156" height="18.769" viewBox="0 0 26.156 18.769">
  <g id="Group_49762" data-name="Group 49762" transform="translate(-2661.778 -4357.193)">
    <g id="Group_49718" data-name="Group 49718" transform="translate(2661.778 4295.48)">
      <path id="Path_9813" data-name="Path 9813" d="M1.244,75.472,12.059,68.7v-.509a.9.9,0,0,0-.485-.761c-.041-.027-.089-.056-.143-.089a2.853,2.853,0,0,1-1.619-2.5,3.231,3.231,0,0,1,2.543-3.03,3.361,3.361,0,0,1,4.237,3.371c0,.076.005.239.007.4,0,.22-.433.4-.97.4h-.195c-.537,0-.973-.178-.974-.4,0-.182,0-.365,0-.4-.03-.723-.224-1.149-.963-1.3a1.428,1.428,0,0,0-1.245.321.738.738,0,0,0-.182.581.852.852,0,0,0,.368.64l.927.631a1.631,1.631,0,0,1,.843,1.514V68.7l10.706,6.749a2.74,2.74,0,0,1-1.687,5.033H2.8A2.728,2.728,0,0,1,.1,78.557,2.781,2.781,0,0,1,1.244,75.472Zm1.1,2.357a.5.5,0,0,0,.486.372h20.42a.5.5,0,0,0,.493-.345.485.485,0,0,0-.212-.549L13.065,70.757,2.542,77.335A.42.42,0,0,0,2.343,77.829Z" transform="translate(0 0)" fill="#ed3897"/>
    </g>
  </g>
</svg>
