<svg xmlns="http://www.w3.org/2000/svg" width="21.571" height="19.191" viewBox="0 0 21.571 19.191">
  <path id="Path_9865" data-name="Path 9865" d="M10.785,47.191a1.265,1.265,0,0,1-.834-.313C9.08,46.116,8.24,45.4,7.5,44.768l0,0a45.616,45.616,0,0,1-5.355-5.027A8.029,8.029,0,0,1,0,34.483a6.742,6.742,0,0,1,1.711-4.6A5.8,5.8,0,0,1,6.026,28a5.426,5.426,0,0,1,3.389,1.17,6.934,6.934,0,0,1,1.37,1.431,6.934,6.934,0,0,1,1.37-1.431A5.426,5.426,0,0,1,15.545,28a5.8,5.8,0,0,1,4.315,1.878,6.742,6.742,0,0,1,1.711,4.6,8.028,8.028,0,0,1-2.139,5.255,45.609,45.609,0,0,1-5.355,5.026c-.743.633-1.584,1.35-2.457,2.114A1.266,1.266,0,0,1,10.785,47.191ZM6.026,29.264A4.551,4.551,0,0,0,2.64,30.734a5.484,5.484,0,0,0-1.377,3.748,6.755,6.755,0,0,0,1.849,4.449,44.892,44.892,0,0,0,5.2,4.871l0,0c.744.634,1.587,1.353,2.465,2.12.883-.769,1.728-1.489,2.473-2.124a44.9,44.9,0,0,0,5.2-4.871,6.756,6.756,0,0,0,1.849-4.449,5.484,5.484,0,0,0-1.377-3.748,4.551,4.551,0,0,0-3.386-1.471,4.191,4.191,0,0,0-2.616.906,6.132,6.132,0,0,0-1.458,1.687.8.8,0,0,1-1.37,0,6.126,6.126,0,0,0-1.458-1.687A4.191,4.191,0,0,0,6.026,29.264Z" transform="translate(0 -28)" fill="#979797"/>
</svg>
