<svg xmlns="http://www.w3.org/2000/svg" width="26" height="26" viewBox="0 0 26 26"><defs><style>.a{opacity:0.5;}.b{fill:#fff;}</style></defs><g class="a"><path class="b" d="M22.191,0H3.809A3.81,3.81,0,0,0,0,3.809V22.191A3.81,3.81,0,0,0,3.809,26H22.191A3.81,3.81,0,0,0,26,22.191V3.809A3.81,3.81,0,0,0,22.191,0Zm0,0" transform="translate(0 0)"/><path d="M364.285,64.57a2.285,2.285,0,1,1,2.285-2.285A2.288,2.288,0,0,1,364.285,64.57Zm0-3.047a.762.762,0,1,0,.762.762A.762.762,0,0,0,364.285,61.523Zm0,0" transform="translate(-342.617 -57.953)"/><path d="M127.855,120a6.856,6.856,0,1,0,6.906,6.855A6.866,6.866,0,0,0,127.855,120Zm0,12.188a5.332,5.332,0,1,1,5.383-5.332A5.338,5.338,0,0,1,127.855,132.187Zm0,0" transform="translate(-114.855 -113.906)"/></g></svg>