<svg xmlns="http://www.w3.org/2000/svg" viewBox="0 0 40 40"><path d="M20,10.16c3.2,0,3.58,0,4.85.07a6.67,6.67,0,0,1,2.23.42,3.89,3.89,0,0,1,2.27,2.27,6.67,6.67,0,0,1,.42,2.23c.06,1.27.07,1.65.07,4.85s0,3.58-.07,4.85a6.67,6.67,0,0,1-.42,2.23,3.89,3.89,0,0,1-2.27,2.27,6.67,6.67,0,0,1-2.23.42c-1.27.06-1.65.07-4.85.07s-3.58,0-4.85-.07a6.67,6.67,0,0,1-2.23-.42,3.89,3.89,0,0,1-2.27-2.27,6.67,6.67,0,0,1-.42-2.23c-.06-1.27-.07-1.65-.07-4.85s0-3.58.07-4.85a6.67,6.67,0,0,1,.42-2.23,3.89,3.89,0,0,1,2.27-2.27,6.67,6.67,0,0,1,2.23-.42c1.27-.06,1.65-.07,4.85-.07M20,8c-3.26,0-3.67,0-4.95.07a8.76,8.76,0,0,0-2.91.56,6.07,6.07,0,0,0-3.51,3.51,8.76,8.76,0,0,0-.56,2.91C8,16.33,8,16.74,8,20s0,3.67.07,4.95a8.76,8.76,0,0,0,.56,2.91,6.07,6.07,0,0,0,3.51,3.51,8.76,8.76,0,0,0,2.91.56C16.33,32,16.74,32,20,32s3.67,0,4.95-.07a8.76,8.76,0,0,0,2.91-.56,6.07,6.07,0,0,0,3.51-3.51A8.76,8.76,0,0,0,31.93,25C32,23.67,32,23.26,32,20s0-3.67-.07-4.95a8.76,8.76,0,0,0-.56-2.91,6.07,6.07,0,0,0-3.51-3.51A8.76,8.76,0,0,0,25,8.07C23.67,8,23.26,8,20,8Zm0,5.84A6.16,6.16,0,1,0,26.16,20,6.16,6.16,0,0,0,20,13.84ZM20,24a4,4,0,1,1,4-4A4,4,0,0,1,20,24Zm6.41-11.85a1.44,1.44,0,1,0,1.44,1.44A1.44,1.44,0,0,0,26.41,12.15Z"/></svg>