<svg xmlns="http://www.w3.org/2000/svg" width="26" height="26" viewBox="0 0 26 26"><defs><style>.a{opacity:0.5;}.b{fill:#fff;}</style></defs><g class="a"><path class="b" d="M22.191,0H3.809A3.854,3.854,0,0,0,0,3.859V22.191A3.81,3.81,0,0,0,3.809,26H22.191A3.81,3.81,0,0,0,26,22.191V3.859A3.854,3.854,0,0,0,22.191,0Zm0,0" transform="translate(0 0)"/><g transform="translate(6.145 5.383)"><path d="M121,196h3.047v10.715H121Zm0,0" transform="translate(-121 -191.43)"/><path d="M121,106h3.047v3.047H121Zm0,0" transform="translate(-121 -106)"/><path d="M220.141,200.052v6.662h-3.047V200.57a1.523,1.523,0,1,0-3.047,0v6.145H211V196h3.047v.579a6.309,6.309,0,0,1,2.285-.579A3.986,3.986,0,0,1,220.141,200.052Zm0,0" transform="translate(-206.43 -191.43)"/></g><path d="M262.855,200.052v6.662h-3.047V200.57a1.523,1.523,0,1,0-3.047,0v6.145H256V196h.762v.579a6.309,6.309,0,0,1,2.285-.579A3.986,3.986,0,0,1,262.855,200.052Zm0,0" transform="translate(-243 -186.047)"/></g></svg>