<svg xmlns="http://www.w3.org/2000/svg" width="63.272" height="10.521" viewBox="0 0 63.272 10.521">
  <g id="Group_49726" data-name="Group 49726" transform="translate(-2563.728 -3856)">
    <text id="mastercare" transform="translate(2584 3864)" fill="#212121" font-size="7" font-family="Poppins-SemiBold, Poppins" font-weight="600"><tspan x="0" y="0">mastercare</tspan></text>
    <g id="Group_49725" data-name="Group 49725" transform="translate(2563.728 3755.2)">
      <path id="Path_9829" data-name="Path 9829" d="M212.12,106.06a5.26,5.26,0,0,1-10.52,0h0a5.26,5.26,0,1,1,10.52,0Z" transform="translate(-194.586)" fill="#ffb600"/>
      <path id="Path_9830" data-name="Path 9830" d="M206.86,100.8a5.274,5.274,0,0,1,5.26,5.26h0a5.26,5.26,0,0,1-10.52,0" transform="translate(-194.586)" fill="#f7981d"/>
      <path id="Path_9831" data-name="Path 9831" d="M352.8,100.8a5.274,5.274,0,0,1,5.26,5.26h0a5.256,5.256,0,0,1-5.26,5.26" transform="translate(-340.526)" fill="#ff8500"/>
      <path id="Path_9832" data-name="Path 9832" d="M5.2,100.8a5.26,5.26,0,0,0,.056,10.52,5.321,5.321,0,0,0,3.535-1.364h0a5,5,0,0,0,.529-.557H8.238a6.42,6.42,0,0,1-.39-.529H9.713a3.565,3.565,0,0,0,.306-.557H7.542a3.317,3.317,0,0,1-.223-.557h2.894a5.526,5.526,0,0,0,.278-1.67,7.184,7.184,0,0,0-.111-1.113H7.153a4.069,4.069,0,0,1,.139-.557h2.894a3.317,3.317,0,0,0-.223-.557H7.514a5.519,5.519,0,0,1,.306-.557H9.685a2.647,2.647,0,0,0-.417-.557H8.238a4.744,4.744,0,0,1,.529-.529,5.136,5.136,0,0,0-3.535-1.364C5.232,100.8,5.232,100.8,5.2,100.8Z" fill="#ff5050"/>
      <path id="Path_9833" data-name="Path 9833" d="M0,107.6a5.256,5.256,0,0,0,5.26,5.26A5.321,5.321,0,0,0,8.795,111.5h0a5,5,0,0,0,.529-.557H8.238a6.42,6.42,0,0,1-.39-.529H9.713a3.566,3.566,0,0,0,.306-.557H7.542a3.317,3.317,0,0,1-.223-.557h2.894a5.526,5.526,0,0,0,.278-1.67,7.184,7.184,0,0,0-.111-1.113H7.153a4.069,4.069,0,0,1,.139-.557h2.894a3.317,3.317,0,0,0-.223-.557H7.514a5.52,5.52,0,0,1,.306-.557H9.685a2.647,2.647,0,0,0-.417-.557H8.238a4.744,4.744,0,0,1,.529-.529A5.136,5.136,0,0,0,5.232,102.4H5.2" transform="translate(0 -1.544)" fill="#e52836"/>
      <path id="Path_9834" data-name="Path 9834" d="M149.656,112.865a5.321,5.321,0,0,0,3.535-1.364h0a5,5,0,0,0,.529-.557h-1.085a6.427,6.427,0,0,1-.39-.529h1.865a3.565,3.565,0,0,0,.306-.557h-2.477a3.316,3.316,0,0,1-.223-.557h2.894a5.527,5.527,0,0,0,.278-1.67,7.183,7.183,0,0,0-.111-1.113h-3.228a4.069,4.069,0,0,1,.139-.557h2.894a3.315,3.315,0,0,0-.223-.557H151.91a5.517,5.517,0,0,1,.306-.557h1.865a2.648,2.648,0,0,0-.417-.557h-1.03a4.744,4.744,0,0,1,.529-.529,5.136,5.136,0,0,0-3.535-1.364H149.6" transform="translate(-144.396 -1.544)" fill="#cb2026"/>
      <g id="Group_49723" data-name="Group 49723" transform="translate(0.501 104.696)">
        <path id="Path_9835" data-name="Path 9835" d="M182.407,222.449l.083-.473a1.205,1.205,0,0,1-.139.028c-.195,0-.223-.111-.195-.167l.167-.974h.306l.084-.529h-.278l.056-.334h-.557s-.334,1.837-.334,2.06a.418.418,0,0,0,.445.473A.854.854,0,0,0,182.407,222.449Z" transform="translate(-175.783 -219.75)" fill="#fff"/>
        <path id="Path_9836" data-name="Path 9836" d="M210.4,229.955a.885.885,0,0,0,.974.974,1.445,1.445,0,0,0,.584-.083l.111-.529a1.669,1.669,0,0,1-.584.139c-.612,0-.5-.445-.5-.445h1.141a3.609,3.609,0,0,0,.083-.5.754.754,0,0,0-.807-.807C210.817,228.647,210.4,229.259,210.4,229.955Zm.974-.807c.306,0,.25.362.25.39h-.612C211.012,229.509,211.068,229.148,211.374,229.148Z" transform="translate(-203.581 -228.146)" fill="#fff"/>
        <path id="Path_9837" data-name="Path 9837" d="M297.531,215.5l.111-.612a1.368,1.368,0,0,1-.473.139c-.39,0-.557-.306-.557-.64,0-.668.334-1.03.724-1.03a.929.929,0,0,1,.5.167l.084-.584a1.957,1.957,0,0,0-.64-.139c-.64,0-1.28.557-1.28,1.614,0,.7.334,1.169,1,1.169A2.5,2.5,0,0,0,297.531,215.5Z" transform="translate(-286.203 -212.8)" fill="#fff"/>
        <path id="Path_9838" data-name="Path 9838" d="M87.458,227.2a1.97,1.97,0,0,0-.668.111l-.083.473a1.645,1.645,0,0,1,.612-.111c.195,0,.362.028.362.195,0,.111-.028.139-.028.139H87.4c-.473,0-1,.195-1,.835,0,.5.334.612.529.612a.836.836,0,0,0,.584-.25l-.028.223h.5l.223-1.531A.66.66,0,0,0,87.458,227.2Zm.111,1.252c0,.083-.056.529-.39.529a.217.217,0,0,1-.223-.223c0-.139.083-.334.5-.334A.439.439,0,0,0,87.569,228.452Z" transform="translate(-83.895 -226.699)" fill="#fff"/>
        <path id="Path_9839" data-name="Path 9839" d="M135.84,228.682a.713.713,0,0,0,.835-.724c0-.7-.668-.557-.668-.835,0-.139.111-.195.306-.195.083,0,.39.028.39.028l.083-.5a2.115,2.115,0,0,0-.529-.056c-.417,0-.835.167-.835.724,0,.64.7.584.7.835,0,.167-.195.195-.334.195a1.821,1.821,0,0,1-.5-.083l-.083.5C135.228,228.627,135.367,228.682,135.84,228.682Z" transform="translate(-130.997 -225.927)" fill="#fff"/>
        <path id="Path_9840" data-name="Path 9840" d="M428.786,214.4l-.111.751a.772.772,0,0,0-.529-.278c-.5,0-.946.612-.946,1.336,0,.445.223.918.7.918a.743.743,0,0,0,.529-.223l-.028.195h.557l.417-2.672Zm-.251,1.475c0,.306-.139.7-.445.7-.195,0-.306-.167-.306-.445,0-.445.195-.724.445-.724C428.425,215.4,428.536,215.541,428.536,215.875Z" transform="translate(-412.839 -214.344)" fill="#fff"/>
        <path id="Path_9841" data-name="Path 9841" d="M14.929,217.072l.334-2,.056,2h.39l.724-2-.306,2h.584l.445-2.672h-.918l-.557,1.642-.028-1.642h-.807l-.445,2.672Z" transform="translate(-14.4 -214.344)" fill="#fff"/>
        <path id="Path_9842" data-name="Path 9842" d="M260.612,230.971c.167-.918.195-1.67.584-1.531a2.184,2.184,0,0,1,.195-.64h-.111c-.25,0-.445.334-.445.334l.056-.306h-.529L260,231h.612Z" transform="translate(-251.456 -228.243)" fill="#fff"/>
        <path id="Path_9843" data-name="Path 9843" d="M347.458,227.2a1.97,1.97,0,0,0-.668.111l-.083.473a1.646,1.646,0,0,1,.612-.111c.195,0,.362.028.362.195,0,.111-.028.139-.028.139h-.25c-.473,0-1,.195-1,.835,0,.5.334.612.529.612a.836.836,0,0,0,.584-.25l-.028.223h.5l.223-1.531A.65.65,0,0,0,347.458,227.2Zm.139,1.252c0,.083-.056.529-.39.529a.217.217,0,0,1-.223-.223c0-.139.083-.334.5-.334C347.569,228.452,347.569,228.452,347.6,228.452Z" transform="translate(-334.85 -226.699)" fill="#fff"/>
        <path id="Path_9844" data-name="Path 9844" d="M395.012,230.971c.167-.918.195-1.67.585-1.531a2.183,2.183,0,0,1,.195-.64h-.111c-.25,0-.445.334-.445.334l.056-.306h-.529L394.4,231h.612Z" transform="translate(-381.18 -228.243)" fill="#fff"/>
      </g>
      <g id="Group_49724" data-name="Group 49724" transform="translate(0.501 104.696)">
        <path id="Path_9845" data-name="Path 9845" d="M180,222.06a.418.418,0,0,0,.445.473,1.059,1.059,0,0,0,.417-.083l.083-.473a1.2,1.2,0,0,1-.139.028c-.195,0-.223-.111-.195-.167l.167-.974h.306l.083-.529h-.278l.056-.334" transform="translate(-174.239 -219.75)" fill="#dce5e5"/>
        <path id="Path_9846" data-name="Path 9846" d="M218.4,229.955c0,.779.25.974.7.974a1.445,1.445,0,0,0,.584-.083l.111-.529a1.669,1.669,0,0,1-.584.139c-.612,0-.5-.445-.5-.445h1.141a3.609,3.609,0,0,0,.083-.5.754.754,0,0,0-.807-.807C218.539,228.647,218.4,229.259,218.4,229.955Zm.7-.807c.306,0,.362.362.362.39h-.724C218.734,229.509,218.79,229.148,219.1,229.148Z" transform="translate(-211.303 -228.146)" fill="#dce5e5"/>
        <path id="Path_9847" data-name="Path 9847" d="M305.252,215.5l.111-.612a1.368,1.368,0,0,1-.473.139c-.39,0-.557-.306-.557-.64,0-.668.334-1.03.724-1.03a.929.929,0,0,1,.5.167l.083-.584a1.957,1.957,0,0,0-.64-.139c-.64,0-1,.557-1,1.614,0,.7.056,1.169.724,1.169A2.5,2.5,0,0,0,305.252,215.5Z" transform="translate(-293.925 -212.8)" fill="#dce5e5"/>
        <path id="Path_9848" data-name="Path 9848" d="M86.706,229.357a1.645,1.645,0,0,1,.612-.111c.195,0,.362.028.362.195,0,.111-.028.139-.028.139H87.4c-.473,0-1,.195-1,.835,0,.5.334.612.529.612a.836.836,0,0,0,.584-.251l-.028.223h.5l.223-1.531c0-.64-.557-.668-.779-.668m.417,1.2a.911.911,0,0,1-.668.529.217.217,0,0,1-.223-.223c0-.139.083-.334.5-.334A2.273,2.273,0,0,0,87.847,230Z" transform="translate(-83.895 -228.243)" fill="#dce5e5"/>
        <path id="Path_9849" data-name="Path 9849" d="M136,228.627a2.356,2.356,0,0,0,.64.056.713.713,0,0,0,.835-.724c0-.7-.668-.557-.668-.835,0-.139.111-.195.306-.195.084,0,.39.028.39.028l.083-.5a2.115,2.115,0,0,0-.529-.056c-.417,0-.557.167-.557.724,0,.64.417.584.417.835,0,.167-.195.195-.334.195" transform="translate(-131.77 -225.927)" fill="#dce5e5"/>
        <path id="Path_9850" data-name="Path 9850" d="M436.341,215.924a.772.772,0,0,0-.529-.278c-.5,0-.668.612-.668,1.336,0,.445-.056.918.417.918a.743.743,0,0,0,.529-.223l-.028.195h.557l.417-2.672m-.724,1.447c0,.306-.25.7-.557.7-.195,0-.306-.167-.306-.445,0-.445.195-.724.445-.724A.425.425,0,0,1,436.313,216.647Z" transform="translate(-420.505 -215.116)" fill="#dce5e5"/>
        <path id="Path_9851" data-name="Path 9851" d="M14.929,217.072l.334-2,.056,2h.39l.724-2-.306,2h.584l.445-2.672h-.7l-.779,1.642-.028-1.642h-.306l-.946,2.672Z" transform="translate(-14.4 -214.344)" fill="#dce5e5"/>
        <path id="Path_9852" data-name="Path 9852" d="M260.8,230.971h.584c.167-.918.195-1.67.584-1.531a2.184,2.184,0,0,1,.195-.64h-.111c-.25,0-.445.334-.445.334l.056-.306" transform="translate(-252.228 -228.243)" fill="#dce5e5"/>
        <path id="Path_9853" data-name="Path 9853" d="M346.706,229.357a1.645,1.645,0,0,1,.612-.111c.195,0,.362.028.362.195,0,.111-.028.139-.028.139h-.25c-.473,0-1,.195-1,.835,0,.5.334.612.529.612a.836.836,0,0,0,.584-.251l-.028.223h.5l.223-1.531c0-.64-.557-.668-.779-.668m.417,1.2a.911.911,0,0,1-.668.529.217.217,0,0,1-.223-.223c0-.139.083-.334.5-.334A2.448,2.448,0,0,0,347.847,230Z" transform="translate(-334.85 -228.243)" fill="#dce5e5"/>
        <path id="Path_9854" data-name="Path 9854" d="M395.2,230.971h.584c.167-.918.195-1.67.584-1.531a2.186,2.186,0,0,1,.195-.64h-.111c-.251,0-.445.334-.445.334l.056-.306" transform="translate(-381.952 -228.243)" fill="#dce5e5"/>
      </g>
    </g>
  </g>
</svg>
