<svg xmlns="http://www.w3.org/2000/svg" width="25.167" height="25.167" viewBox="0 0 25.167 25.167">
  <g id="Group_49761" data-name="Group 49761" transform="translate(-2157.416 -4355.416)">
    <g id="Group_49760" data-name="Group 49760">
      <g id="Group_49711" data-name="Group 49711" transform="translate(2157.666 4355.666)">
        <g id="Group_49710" data-name="Group 49710">
          <g id="Group_49709" data-name="Group 49709">
            <path id="Path_9811" data-name="Path 9811" d="M16.188,0H8.479A8.479,8.479,0,0,0,0,8.479v3.083a8.479,8.479,0,0,0,8.479,8.479H9.25V23.9a.769.769,0,0,0,1.31.547l4.4-4.4h1.226a8.479,8.479,0,0,0,8.479-8.479V8.479A8.479,8.479,0,0,0,16.188,0Zm6.938,11.563A6.938,6.938,0,0,1,16.188,18.5H14.646a.771.771,0,0,0-.547.231l-3.307,3.307V19.271a.771.771,0,0,0-.771-.771H8.479a6.938,6.938,0,0,1-6.938-6.938V8.479A6.938,6.938,0,0,1,8.479,1.542h7.709a6.938,6.938,0,0,1,6.938,6.938Z" fill="#ed3897" stroke="#ed3897" stroke-width="0.5"/>
            <g id="Group_49712" data-name="Group 49712">
              <circle id="Ellipse_6" data-name="Ellipse 6" cx="1.5" cy="1.5" r="1.5" transform="translate(11.334 9.334)" fill="#ed3897" stroke="#ed3897" stroke-width="0.5"/>
              <circle id="Ellipse_7" data-name="Ellipse 7" cx="1.5" cy="1.5" r="1.5" transform="translate(17.334 9.334)" fill="#ed3897" stroke="#ed3897" stroke-width="0.5"/>
              <circle id="Ellipse_8" data-name="Ellipse 8" cx="1.5" cy="1.5" r="1.5" transform="translate(5.334 9.334)" fill="#ed3897" stroke="#ed3897" stroke-width="0.5"/>
            </g>
          </g>
        </g>
      </g>
    </g>
  </g>
</svg>
