<svg xmlns="http://www.w3.org/2000/svg" width="39.296" height="10.042" viewBox="0 0 39.296 10.042">
  <g id="Group_49728" data-name="Group 49728" transform="translate(0 -187.6)">
    <path id="Path_9855" data-name="Path 9855" d="M350.506,221.2h-2.121a.414.414,0,0,0-.312.25l-.873,5.489a.165.165,0,0,0,.187.187h1.123a.165.165,0,0,0,.187-.187l.25-1.559a.285.285,0,0,1,.312-.249h.686a2.174,2.174,0,0,0,2.433-2.058,1.635,1.635,0,0,0-.249-1.372,2.516,2.516,0,0,0-1.622-.5m.25,2.058c-.125.749-.686.749-1.247.749h-.374l.25-1.435c0-.062.062-.125.187-.125h.125c.374,0,.749,0,.936.249.125.062.125.25.125.561" transform="translate(-320.129 -30.98)" fill="#139ad6"/>
    <g id="Group_49727" data-name="Group 49727" transform="translate(11.789 190.22)">
      <path id="Path_9856" data-name="Path 9856" d="M154.506,221.2h-2.121a.414.414,0,0,0-.312.25l-.873,5.489a.165.165,0,0,0,.187.187h1a.414.414,0,0,0,.312-.249l.249-1.5a.285.285,0,0,1,.312-.249h.686a2.174,2.174,0,0,0,2.433-2.058,1.635,1.635,0,0,0-.249-1.372,2.4,2.4,0,0,0-1.622-.5m.249,2.058c-.125.749-.686.749-1.248.749H153.2l.249-1.435c0-.062.062-.125.187-.125h.125c.374,0,.749,0,.936.249a.668.668,0,0,1,.062.561" transform="translate(-151.2 -221.2)" fill="#263b80"/>
      <path id="Path_9857" data-name="Path 9857" d="M218.741,245.325h-1c-.062,0-.187.062-.187.125l-.062.312-.062-.125a1.467,1.467,0,0,0-1.185-.437,2.4,2.4,0,0,0-2.308,2.058,1.859,1.859,0,0,0,.374,1.559,1.572,1.572,0,0,0,1.31.5,1.994,1.994,0,0,0,1.435-.561l-.062.312a.165.165,0,0,0,.187.187h.936a.414.414,0,0,0,.312-.25l.561-3.493c-.062-.062-.187-.187-.25-.187m-1.435,2a1.206,1.206,0,0,1-1.185,1,1,1,0,0,1-.686-.25,1.33,1.33,0,0,1-.187-.749,1.113,1.113,0,0,1,1.809-.748,1.089,1.089,0,0,1,.249.748" transform="translate(-209.01 -243.329)" fill="#263b80"/>
    </g>
    <path id="Path_9858" data-name="Path 9858" d="M413.941,245.325h-1c-.062,0-.187.062-.187.125l-.062.312-.062-.125a1.467,1.467,0,0,0-1.185-.437,2.4,2.4,0,0,0-2.308,2.058,1.859,1.859,0,0,0,.374,1.559,1.572,1.572,0,0,0,1.31.5,1.994,1.994,0,0,0,1.435-.561l-.062.312a.165.165,0,0,0,.187.187h.936a.414.414,0,0,0,.312-.25l.561-3.493c-.062-.062-.125-.187-.249-.187m-1.435,2a1.206,1.206,0,0,1-1.185,1,1,1,0,0,1-.686-.25,1.33,1.33,0,0,1-.187-.749,1.113,1.113,0,0,1,1.809-.748.716.716,0,0,1,.25.748" transform="translate(-377.202 -53.109)" fill="#139ad6"/>
    <path id="Path_9859" data-name="Path 9859" d="M288.8,246.8h-1.06a.324.324,0,0,0-.25.125l-1.372,2.121-.624-2a.288.288,0,0,0-.312-.187h-1c-.125,0-.187.125-.187.249l1.123,3.306-1.06,1.5c-.062.125,0,.312.125.312h1a.324.324,0,0,0,.249-.125l3.431-4.928c.187-.187.062-.374-.062-.374" transform="translate(-261.857 -54.584)" fill="#263b80"/>
    <path id="Path_9860" data-name="Path 9860" d="M476.073,221.835l-.873,5.614a.165.165,0,0,0,.187.187h.873a.414.414,0,0,0,.312-.25l.873-5.489a.165.165,0,0,0-.187-.187h-1c-.062-.062-.125,0-.187.125" transform="translate(-438.149 -31.428)" fill="#139ad6"/>
    <path id="Path_9861" data-name="Path 9861" d="M7.173,188.348A3.082,3.082,0,0,0,4.8,187.6H1.684a.535.535,0,0,0-.437.374L0,196.145a.285.285,0,0,0,.25.312H2.183l.5-3.056v.125a.535.535,0,0,1,.437-.374h.936a3.293,3.293,0,0,0,3.618-2.807v-.187h0a2.178,2.178,0,0,0-.5-1.809" transform="translate(0 0)" fill="#263b80"/>
    <path id="Path_9862" data-name="Path 9862" d="M31.214,220.4h0v.187a3.246,3.246,0,0,1-3.618,2.807H26.66a.535.535,0,0,0-.437.374l-.624,3.8a.228.228,0,0,0,.25.249h1.622a.349.349,0,0,0,.374-.312v-.062l.312-1.934v-.125a.349.349,0,0,1,.374-.312h.25a2.791,2.791,0,0,0,3.119-2.495,2.293,2.293,0,0,0-.312-1.871.639.639,0,0,0-.374-.312" transform="translate(-23.604 -30.243)" fill="#139ad6"/>
    <path id="Path_9863" data-name="Path 9863" d="M38.891,215.787c-.062,0-.125-.062-.187-.062a.229.229,0,0,1-.187-.062,3.3,3.3,0,0,0-.811-.062H35.273a.229.229,0,0,0-.187.062.343.343,0,0,0-.187.312l-.5,3.244v.125a.535.535,0,0,1,.437-.374h.936a3.293,3.293,0,0,0,3.618-2.807.229.229,0,0,1,.062-.187c-.125-.062-.187-.125-.312-.125-.187-.062-.187-.062-.25-.062" transform="translate(-31.718 -25.817)" fill="#232c65"/>
  </g>
</svg>
