<svg xmlns="http://www.w3.org/2000/svg" width="512" height="512" viewBox="0 0 512 512"><path fill="#1A1A1A" fill-rule="evenodd" d="M434.478 16H77.519C43.718 16 16 43.719 16 77.521v356.957C16 468.282 43.718 496 77.519 496h356.959C468.281 496 496 468.282 496 434.479V77.521C496 43.719 468.281 16 434.478 16zm-54.506 223.285c-11.92 52.271-48.648 88.074-98.449 88.074-20.527 0-39.848-10.752-46.46-22.939 0 0-11.017 42.368-13.356 50.566-8.245 28.918-32.451 57.865-34.338 60.216-1.316 1.653-4.222 1.146-4.53-1.056-.522-3.66-6.682-40.16.573-69.927 3.642-14.956 24.471-100.257 24.471-100.257s-3.007-5.873-4.788-15.392a73.026 73.026 0 0 1-1.317-13.766c0-27.27 16.371-47.608 36.721-47.608 17.267 0 25.624 12.568 25.624 27.628 0 8.791-3.021 19.892-6.739 31.823-3.385 10.83-7.313 22.351-10.055 33.466-4.777 19.53 10.131 35.447 30.046 35.447 27.927 0 48.796-26.981 56.755-63.883 2.274-10.642 3.496-22.099 3.496-33.979 0-40.309-28.047-70.507-79.114-70.507-57.654 0-93.631 41.638-93.631 88.144 0 6.402.794 12.03 2.23 17.068 2.154 7.573 5.717 13.775 10.342 19.02 3.526 4.022 3.983 5.62 2.725 10.234-.943 3.438-3.004 11.561-3.886 14.793-1.259 4.697-5.136 6.326-9.529 4.628-18.427-7.313-30.046-23.146-35.396-42.74-2.361-8.601-3.529-17.921-3.529-27.585 0-52.26 45.564-114.936 135.884-114.955 72.61 0 120.424 50.826 120.424 105.41-.003 13.391-1.443 26.159-4.174 38.077z" clip-rule="evenodd"/></svg>