<svg xmlns="http://www.w3.org/2000/svg" width="29.922" height="24.49" viewBox="0 0 29.922 24.49"><path d="M11.163,24.494A25.675,25.675,0,0,1,7.2,24.179,18.6,18.6,0,0,1,1.773,22.2L0,21.236,1.92,20.6c2.1-.69,3.375-1.118,4.955-1.788A6.591,6.591,0,0,1,3.486,14.89L3.04,13.535l.366.056a6.649,6.649,0,0,1-.834-1.028A6.312,6.312,0,0,1,1.5,8.809l.084-1.183.708.274a6.621,6.621,0,0,1-.642-1.8,6.845,6.845,0,0,1,.729-4.608L3,.361l.825.991a15.188,15.188,0,0,0,9.839,5.54,5.885,5.885,0,0,1,.357-3.126A5.853,5.853,0,0,1,16.4,1.037,7.148,7.148,0,0,1,20.548.018,6.625,6.625,0,0,1,24.622,1.7a13.623,13.623,0,0,0,1.491-.5c.327-.123.7-.263,1.162-.423L28.984.189,27.869,3.372c.074-.006.149-.011.229-.015l1.825-.083L28.844,4.749c-.062.084-.078.108-.1.141-.087.131-.2.294-1.676,2.271a2.79,2.79,0,0,0-.521,1.816,17.179,17.179,0,0,1-.938,6.91,12.225,12.225,0,0,1-3.282,4.862,14.5,14.5,0,0,1-6.872,3.322,21.139,21.139,0,0,1-4.292.421Zm0,0" transform="translate(0 -0.004)"/></svg>