<svg xmlns="http://www.w3.org/2000/svg" width="38.486" height="11.668" viewBox="0 0 38.486 11.668">
  <g id="Group_49722" data-name="Group 49722" transform="translate(0 -175.6)">
    <path id="Path_9814" data-name="Path 9814" d="M184.8,191.4l1.955-11h3.054l-1.894,11Z" transform="translate(-170.689 -4.433)" fill="#3c58bf"/>
    <path id="Path_9815" data-name="Path 9815" d="M184.8,191.4l2.5-11h2.5l-1.894,11Z" transform="translate(-170.689 -4.433)" fill="#293688"/>
    <path id="Path_9816" data-name="Path 9816" d="M257.346,176.089a7.748,7.748,0,0,0-2.81-.489c-3.054,0-5.254,1.527-5.254,3.726,0,1.649,1.527,2.5,2.749,3.054s1.588.916,1.588,1.405c0,.733-.977,1.1-1.833,1.1a6.64,6.64,0,0,1-2.932-.611l-.428-.183L248,186.6a9.9,9.9,0,0,0,3.482.611c3.238,0,5.376-1.527,5.376-3.849,0-1.283-.794-2.26-2.627-3.054-1.1-.55-1.772-.855-1.772-1.405,0-.489.55-.977,1.772-.977a5.6,5.6,0,0,1,2.321.428l.305.122.489-2.382Z" transform="translate(-229.063 0)" fill="#3c58bf"/>
    <path id="Path_9817" data-name="Path 9817" d="M257.346,176.089a7.748,7.748,0,0,0-2.81-.489c-3.054,0-4.7,1.527-4.7,3.726a3.193,3.193,0,0,0,2.2,3.054c1.222.55,1.588.916,1.588,1.405,0,.733-.977,1.1-1.833,1.1a6.64,6.64,0,0,1-2.932-.611l-.428-.183L248,186.6a9.9,9.9,0,0,0,3.482.611c3.238,0,5.376-1.527,5.376-3.849,0-1.283-.794-2.26-2.627-3.054-1.1-.55-1.772-.855-1.772-1.405,0-.489.55-.977,1.772-.977a5.6,5.6,0,0,1,2.321.428l.305.122.489-2.382Z" transform="translate(-229.063 0)" fill="#293688"/>
    <path id="Path_9818" data-name="Path 9818" d="M364.57,180.4c-.733,0-1.283.061-1.588.794L358.4,191.4h3.3l.611-1.833h3.91l.367,1.833h2.932l-2.566-11Zm-1.405,7.331c.183-.55,1.222-3.238,1.222-3.238s.244-.672.428-1.1l.183,1.039s.611,2.749.733,3.36h-2.566Z" transform="translate(-331.032 -4.433)" fill="#3c58bf"/>
    <path id="Path_9819" data-name="Path 9819" d="M365.3,180.4c-.733,0-1.283.061-1.588.794L358.4,191.4h3.3l.611-1.833h3.91l.367,1.833h2.932l-2.566-11Zm-2.138,7.331c.244-.611,1.222-3.238,1.222-3.238s.244-.672.428-1.1l.183,1.039s.611,2.749.733,3.36h-2.566Z" transform="translate(-331.032 -4.433)" fill="#293688"/>
    <path id="Path_9820" data-name="Path 9820" d="M55.782,188.836l-.305-1.588a8.855,8.855,0,0,0-4.276-4.826l2.749,9.774h3.3l4.948-11H58.9Z" transform="translate(-47.29 -5.172)" fill="#3c58bf"/>
    <path id="Path_9821" data-name="Path 9821" d="M55.782,188.836l-.305-1.588a8.855,8.855,0,0,0-4.276-4.826l2.749,9.774h3.3l4.948-11H59.508Z" transform="translate(-47.29 -5.172)" fill="#293688"/>
    <path id="Path_9822" data-name="Path 9822" d="M0,180.4l.55.122c3.91.916,6.6,3.238,7.636,5.987l-1.1-5.192c-.183-.733-.733-.916-1.405-.916Z" transform="translate(0 -4.433)" fill="#ffbc00"/>
    <path id="Path_9823" data-name="Path 9823" d="M0,180.4H0c3.91.916,7.147,3.3,8.186,6.048L7.147,182.11a1.491,1.491,0,0,0-1.466-1.161Z" transform="translate(0 -4.433)" fill="#f7981d"/>
    <path id="Path_9824" data-name="Path 9824" d="M0,180.4H0c3.91.916,7.147,3.3,8.186,6.048l-.733-2.382a2.154,2.154,0,0,0-1.283-1.772Z" transform="translate(0 -4.433)" fill="#ed7c00"/>
    <g id="Group_49721" data-name="Group 49721" transform="translate(3.971 177.188)">
      <path id="Path_9825" data-name="Path 9825" d="M59.575,202.509,57.5,200.432l-.977,2.321-.244-1.527A8.856,8.856,0,0,0,52,196.4l2.749,9.774h3.3Z" transform="translate(-52 -196.4)" fill="#051244"/>
      <path id="Path_9826" data-name="Path 9826" d="M187.916,291.888l-2.627-2.688-.489,2.688Z" transform="translate(-174.659 -282.114)" fill="#051244"/>
      <path id="Path_9827" data-name="Path 9827" d="M253.315,274.8h0c.244.244.367.428.305.672,0,.733-.977,1.1-1.833,1.1a6.64,6.64,0,0,1-2.932-.611l-.428-.183-.428,2.5a9.906,9.906,0,0,0,3.482.611,6.048,6.048,0,0,0,4.459-1.527Z" transform="translate(-233.033 -268.813)" fill="#051244"/>
      <path id="Path_9828" data-name="Path 9828" d="M364,227.6h2.871l.611-1.833h3.91l.367,1.833h2.932l-1.038-4.459-3.665-3.543.183.977s.611,2.749.733,3.36h-2.566c.244-.611,1.222-3.238,1.222-3.238s.244-.672.428-1.1" transform="translate(-340.176 -217.828)" fill="#051244"/>
    </g>
  </g>
</svg>
